# xmcd
#
# Track frame offsets: 
#        182
#        13522
#        24972
#        37590
#        51145
#        64550
#        74267
#        86652
#        99105
#        113067
#        126787
#        139250
#        152540
#        165890
#        178987
#        191797
#        203562
#        216077
#        229852
#        242590
#        255260
#        266832
#        280577
#        294335
#        305130
#        318055
#        328880
#
# Disc length: 4538 seconds
#
# Revision: 19
# Processed by: cddbd v1.5.2PL0 Copyright (c) Steve Scherf et al.
# Submitted via: ExactAudioCopyFreeDBPlugin 1.0
#
DISCID=6a11b81b
DTITLE=Various Artist - Hitsville USA:  The Motown Singles Collection
DTITLE=s, 1959 - 1992 [box sets]
DYEAR=1992
DGENRE=Rhythm and Blues
TTITLE0=The Temptations - My Girl
TTITLE1=The Velvelettes - He Was Really Sayin' Somethin'
TTITLE2=The Four Tops - Ask the Lonely
TTITLE3=Jr. Walker and The All Stars - Shotgun
TTITLE4=Martha and The Vandellas - Nowhere to Run
TTITLE5=Brenda Holloway - When I'm Gone
TTITLE6=The Miracles - Ooo Baby Baby
TTITLE7=The Four Tops - I Can't Help Myself (Sugar Pie Honey Bunch)
TTITLE8=The Contours - First I Look at the Purse
TTITLE9=The Miracles - The Tracks of My Tears
TTITLE10=The Four Tops - It's the Same Old Song
TTITLE11=Martha Reeves and The Vandellas - Love (Makes Me Do Foolish Thi
TTITLE11=ngs)
TTITLE12=Kim Weston - Take Me in Your Arms (Rock Me A Little While)
TTITLE13=Stevie Wonder - Uptight (Everything's Alright)
TTITLE14=The Marvelettes - Don't Mess with Bill
TTITLE15=The Elgins - Darling Baby
TTITLE16=The Isley Brothers - This Old Heart of Mine (Is Weak for You)
TTITLE17=The Monitors - Greetings (This is Uncle Sam)
TTITLE18=Shorty Long - Function at the Junction
TTITLE19=Jr. Walker and The All Stars - (I'm A) Roadrunner
TTITLE20=The Temptations - Ain't Too Proud to Beg
TTITLE21=Jimmy Ruffin - What Becomes of the Brokenhearted
TTITLE22=Jr. Walker and The All Stars - How Sweet it Is (To Be Loved By 
TTITLE22=You)
TTITLE23=Chris Clark - Love's Gone Bad
TTITLE24=The Supremes - You Can't Hurry Love
TTITLE25=The Temptations - Beauty is Only Skin Deep
TTITLE26=The Elgins - Heaven Must Have Sent You
EXTD=
EXTT0=
EXTT1=
EXTT2=
EXTT3=
EXTT4=
EXTT5=
EXTT6=
EXTT7=
EXTT8=
EXTT9=
EXTT10=
EXTT11=
EXTT12=
EXTT13=
EXTT14=
EXTT15=
EXTT16=
EXTT17=
EXTT18=
EXTT19=
EXTT20=
EXTT21=
EXTT22=
EXTT23=
EXTT24=
EXTT25=
EXTT26=
PLAYORDER=
